<?xml version="1.0" encoding="utf-8"?>
<!-- Generator: Adobe Illustrator 23.0.4, SVG Export Plug-In . SVG Version: 6.00 Build 0)  -->
<svg version="1.1" id="Layer_1" xmlns="http://www.w3.org/2000/svg" xmlns:xlink="http://www.w3.org/1999/xlink" x="0px" y="0px"
	 viewBox="0 0 626.03 134.14" style="enable-background:new 0 0 626.03 134.14;" xml:space="preserve">
<g>
	<polygon points="434.84,96.96 453.3,96.98 453.29,114.92 413.78,114.89 413.84,23.47 434.89,23.49 	"/>
	<g>
		<path d="M482.92,116.65c-14.6-0.01-25.55-10.98-25.55-20.24l0.05-54.4C457.4,32.76,468.38,21.8,483,21.8
			c14.52,0,25.47,11,25.46,20.24l-0.03,54.41C508.43,105.71,497.44,116.66,482.92,116.65 M483,39.75c-2.41-0.01-4.34,1.47-4.34,3.88
			l-0.04,51.18c0,2.4,1.95,3.9,4.34,3.89c2.27,0.01,4.21-1.47,4.23-3.89l0.03-51.17C487.22,41.23,485.27,39.75,483,39.75"/>
		<path d="M545.39,23.56c10.04-0.01,20.44,5.04,20.42,16.7l0,19.89c0,4.33-2.73,8.22-8.1,10.6c5.36,2.41,8.57,6.42,8.57,10.63
			l-0.02,18.3c-0.01,5.82,1.37,10.84,2.62,15.32l-19.77-0.02c-1.6-3.99-2.64-9.38-2.61-14.17V82.19c0.01-1.96-1.47-3.55-4.31-3.55
			h-5.17l-0.02,36.34l-21.01-0.02l0.05-91.42L545.39,23.56z M542.52,62.4c2.27,0,3.53-1.02,3.53-3.64l0.02-14.18
			c0-2.64-1.27-3.65-3.53-3.67h-5.48l-0.04,21.49H542.52z"/>
	</g>
	<polygon points="586.58,75.58 586.56,115.01 607.8,115.03 607.84,75.59 626.03,23.6 605.95,23.61 598.48,54.11 590.16,23.59 
		569.02,23.58 	"/>
	<g>
		<path d="M25.68,116.73c-15.97-0.02-25.7-9.27-25.67-20.36L0,85.39l18.51,0.02v7.3c0,3.53,2.28,6.07,6.39,6.05
			c3.9,0.01,5.84-2.04,5.83-5.93c0-7.54-6.39-11.32-15.98-20.24C5.61,64.02,0.71,55.68,0.71,45.29
			c0.02-12.46,8.71-23.44,25.61-23.43c13.95,0.02,23.44,10.99,23.41,20.27l0.02,11.06l-18.42-0.01v-8.1c0-3.19-2.28-5.27-5.02-5.27
			c-2.65,0.01-5.48,2.05-5.5,5.26c0.01,7.42,2.65,10.06,13.93,20.11c9.73,8.81,16.11,18.19,16.11,28.13
			C50.84,105.87,41.91,116.73,25.68,116.73"/>
		<path d="M82.38,116.77c-14.63-0.02-25.59-11.01-25.6-20.25l0.04-54.38c0.01-9.28,10.99-20.24,25.64-20.23
			c14.49,0.02,25.44,10.98,25.42,20.25l-0.03,54.39C107.83,105.8,96.87,116.77,82.38,116.77 M82.43,39.85
			c-2.41,0-4.33,1.48-4.34,3.89l-0.04,51.18c0.01,2.4,1.93,3.89,4.36,3.9c2.23-0.01,4.21-1.5,4.22-3.9l0.03-51.17
			C86.66,41.34,84.7,39.86,82.43,39.85"/>
	</g>
	<path d="M129.91,115.07l-18.63-0.01l13.9-91.4l25.13,0.01l14.11,91.43l-21.72-0.01l-1.04-13.13l-10.17-0.01L129.91,115.07z
		 M137.61,54.52l-3.69,28.91h5.95L137.61,54.52z"/>
	<g>
		<path d="M329.05,84.14c16.29,0,33.61-10.25,33.61-29.24c0-5.68-1.95-10.81-5.5-14.43c-3.66-3.73-8.69-5.7-14.57-5.7h-0.01
			c-12.33,0-21.43,9.91-22.66,24.68v0.01l0.95-1.11c2.16-2.53,5.1-5.99,10.23-5.99h0.01c1.87,0,3.59,0.61,4.84,1.7
			c1.31,1.14,2.02,2.72,2.01,4.47c0,3.21-1.47,5.48-4.48,6.91c-2.49,1.18-6.01,1.77-10.74,1.77c-5.68-0.04-10.34-0.52-15.18-1.07
			c-5.44-0.62-11.04-1.24-18.96-1.26c-15.58,0-26.05,8.45-26.06,21.03c0,5.03,2.64,8.23,4.85,10.02c2.54,2.06,5.38,2.99,6.58,3
			c4.52,0,8.15-1.81,10.49-5.23h0c-0.85,0.2-3.81,0.72-5.73-0.83c-1.03-0.83-1.55-2.1-1.55-3.78c0-1.03,0.37-1.95,1.09-2.67
			c1.18-1.18,2.91-1.44,3.48-1.44c2.08,0,3.98,0.73,5.34,2.07c0.81,0.8,1.43,1.78,1.84,2.94l0.35,1.3c0.16,0.8,0.24,1.67,0.24,2.61
			c0,4.24-2.28,8.25-6.43,11.3c-3.78,2.79-8.81,4.45-13.45,4.45c-5.89-0.01-11.24-2.12-15.06-5.94c-3.6-3.6-5.5-8.36-5.49-13.73
			c0.01-16.13,13.75-30.34,32.69-33.77c1.32-0.11,2.35,0.37,3.63,0.87c2.38,0.93,5.93,2.32,13.06,2.33h0.07
			c5.88,0,10.45-1.19,12.53-3.27c0.91-0.91,1.34-1.93,1.34-3.14c-0.01-5.47-11.27-6.62-20.75-6.62c-1.46,0.05-2.74,0.03-3.52,0.06
			c-1.47,0.04-2.02,0.06-2.56-0.42c-1.51-1.51-2.21-5.12-2.2-6.73c0-2.18,0-4.65,2.73-7.73l0.65-0.73l0.89,0.42
			c6.2,2.91,24,5.76,27.27,5.76h0.01c7.17,0,13.75-1.6,18.52-4.5c5.38-3.27,8.23-8.03,8.23-13.77c0.01-13.82-15.61-18.75-29-18.77
			h-0.07c-19.5,0-29.8,8.6-34.21,12.28l-0.38,0.32c-0.33,0.28-0.61,0.51-0.86,0.69l-0.57,0.44l-0.67-0.26
			c-0.86-0.32-2-0.81-3.37-1.4c-7.71-3.32-21.74-9.35-36.43-9.36h-0.05c-9.02,0-16.82,2.84-21.99,8.01
			c-3.98,3.97-6.07,9.09-6.07,14.82c0,14.08,13.21,23.55,25.55,23.56h0.02c8.21,0,22.31-5.58,26.51-11.86l-1.67,0.66
			c-1.98,0.8-4,1.62-6.32,1.62h-0.02c-3.75,0-6.08-1.3-7.41-2.73c-1.53-1.65-2.38-3.25-2.38-5.23c0-3.99,2.37-8.7,12.34-8.71
			c2.97,0,8.46,0.84,11.99,1.83l1.41,0.4l-0.55,1.36c-0.68,1.67-1.25,3.96-1.58,5.89l-0.18,1.21c-0.08,0.63-0.12,1.2-0.12,1.62
			c-0.01,3.41,1.11,7.46,2.99,10.83l0.96,1.73l-1.97,0.21c-19.32,2.06-49.99,16.35-50,45.93c-0.01,14,6.19,24.77,18.42,31.99
			c13.02,7.69,27.62,8.29,31.79,8.29h0.07c13.35,0,25.71-4.39,34.79-12.37c7.55-6.62,12.24-15.17,12.25-22.32
			c0.02-6.42-1.93-11.37-5.94-15.14l-3.24-3.04l4.37,0.8C314.52,82.89,321.29,84.13,329.05,84.14 M297.7,21.01
			c3.75-1.72,6.12-2.24,9.68-2.26h0.02c2.31,0,5.57,0.89,7.06,2.4c0.89,0.88,0.89,1.69,0.89,1.95c0.01,0.94-0.34,1.79-1.01,2.46
			c-0.89,0.91-2.31,1.42-4.01,1.43c-2.71,0-12.45-3.52-12.55-3.55l-3-1.09L297.7,21.01z"/>
		<path d="M216,45.79c-6.23-4.61-10.65-11.65-10.65-20.25c-3.06-1.2-6.48-1.83-9.9-1.83l-26.83-0.02l-0.08,91.42l21.02,0.02
			l0.02-32.92l5.84,0.01c10.17,0.01,20.56-5.03,20.57-16.69L216,45.79z M196.22,61.17c0.01,2.63-1.37,3.67-3.66,3.67l-2.97-0.01
			l0.01-23.75l2.97,0c2.28-0.01,3.65,1.03,3.66,3.64L196.22,61.17z"/>
		<path d="M380.9,70.19l-0.01,13.25h4.57l-0.01,12.44c0,2.53-2.04,3.89-4.55,3.89c-2.55,0-4.49-1.35-4.47-3.9l0.03-52.32
			c0.01-2.39,1.94-3.87,4.49-3.87c2.5-0.01,4.53,1.47,4.53,3.88l0.02,15.42l20.76,0.02l0.02-18.18c0.02-9.24-9.93-19.07-25.33-19.09
			c-12.72,0-22.06,6.86-24.82,14.52c1.02,0.72,2.01,1.48,2.9,2.39c4.03,4.11,6.25,9.89,6.25,16.27
			c-0.01,9.58-4.04,17.09-10.08,22.42l-0.01,20.15c-0.01,10.18,8.31,19.07,23.04,19.1c6.1,0.01,11.69-2.84,14.21-5.57l2.74,3.88
			l12.56,0l0.02-44.68L380.9,70.19z"/>
	</g>
	<polygon points="614.19,109.42 612.32,109.41 612.32,108.11 617.63,108.11 617.63,109.42 615.74,109.42 615.75,115.02 
		614.18,115.03 	"/>
	<g>
		<path d="M624.4,112.38c-0.03-0.83-0.07-1.84-0.06-2.85l-0.02,0.01c-0.22,0.89-0.52,1.87-0.79,2.69l-0.84,2.7l-1.22,0l-0.74-2.67
			c-0.23-0.82-0.45-1.81-0.63-2.72l-0.02,0.01c-0.04,0.94-0.07,2-0.12,2.87l-0.13,2.63l-1.45,0l0.45-6.92l2.09,0l0.67,2.31
			c0.23,0.8,0.44,1.65,0.59,2.47l0.02,0c0.19-0.81,0.43-1.72,0.67-2.48l0.71-2.3l2.07,0l0.37,6.92h-1.52L624.4,112.38z"/>
	</g>
</g>
</svg>
