<?xml version="1.0" encoding="utf-8"?>
<svg version="1.1" xmlns="http://www.w3.org/2000/svg" xmlns:xlink="http://www.w3.org/1999/xlink" x="0px" y="0px" width="300px" height="40px" viewBox="0 0 300 40" style="enable-background:new 0 0 300 40;" xml:space="preserve">
<path d="M11.152,25.679h-4.84l0.041,12.532c0,0.213-0.164,0.427-0.328,0.427H0.363c-0.164,0-0.328-0.213-0.328-0.427l0.123-18.238
	L0.035,1.736c0-0.213,0.164-0.427,0.328-0.427h10.83c6.932,0,10.912,4.053,10.912,11.999C22.105,21.146,18.002,25.679,11.152,25.679
	z M11.439,7.228H6.312L6.27,19.76h5.333c2.42,0,4.471-1.813,4.471-6.292C16.074,9.201,14.393,7.228,11.439,7.228z"/>
<path d="M36.174,30.319l-2.83-5.546h-4.102l0.082,13.438c0,0.213-0.164,0.427-0.328,0.427h-5.62c-0.164,0-0.328-0.213-0.328-0.427
	l0.082-18.238L23.047,1.736c0-0.213,0.164-0.427,0.328-0.427h11.65c7.179,0,11.322,3.946,11.322,11.732
	c0,5.493-2.338,9.279-6.399,10.879l7.179,14.345c0.082,0.16,0,0.373-0.164,0.373h-6.604c-0.205,0-0.41-0.16-0.492-0.373
	L36.174,30.319z M35.271,7.228h-5.989l-0.041,11.625h6.194c2.625,0,4.881-1.6,4.881-5.653S38.471,7.228,35.271,7.228z"/>
<path d="M48.274,38.638c-0.164,0-0.328-0.213-0.328-0.427l0.123-18.238L47.946,1.736c0-0.213,0.164-0.427,0.328-0.427h5.579
	c0.164,0,0.328,0.213,0.328,0.427l-0.123,18.238l0.123,18.238c0,0.213-0.164,0.427-0.328,0.427H48.274z"/>
<path d="M61.933,20.827v17.384c0,0.213-0.164,0.427-0.328,0.427h-5.169c-0.164,0-0.328-0.213-0.328-0.427l0.082-18.238L56.108,1.736
	c0-0.213,0.164-0.427,0.328-0.427h6.892c0.205,0,0.41,0.16,0.492,0.373l11.527,26.397l-0.246-7.146V1.736
	c0-0.213,0.164-0.427,0.328-0.427h5.169c0.164,0,0.328,0.213,0.328,0.427l-0.082,18.238l0.082,18.238
	c0,0.213-0.164,0.427-0.328,0.427H73.46c-0.205,0-0.41-0.16-0.492-0.373L61.687,12.081l0.041,1.013L61.933,20.827z"/>
<path d="M96.39,39.438c-8.819,0-14.275-7.946-14.275-19.304c0-11.892,5.579-19.624,14.234-19.624c6.194,0,11.24,3.306,12.839,13.332
	c0.041,0.213-0.082,0.427-0.246,0.427h-5.456c-0.164,0-0.369-0.16-0.41-0.427c-0.779-4.533-3.077-7.093-6.809-7.093
	c-5.005,0-7.712,5.013-7.712,13.332s2.789,13.118,7.671,13.118c4.02,0,6.194-2.826,6.974-7.946c0-0.267,0.205-0.427,0.369-0.427
	h5.579c0.164,0,0.287,0.213,0.246,0.427C107.834,35.491,103.158,39.438,96.39,39.438z"/>
<path d="M110.869,38.638c-0.164,0-0.328-0.213-0.328-0.427l0.123-18.238l-0.123-18.238c0-0.213,0.164-0.427,0.328-0.427h19.403
	c0.164,0,0.328,0.213,0.328,0.427v5.173c0,0.213-0.164,0.427-0.328,0.427h-13.455l-0.082,8.586h12.347
	c0.164,0,0.328,0.213,0.328,0.427v5.173c0,0.213-0.164,0.427-0.328,0.427h-12.347l0.082,10.665H130.6
	c0.164,0,0.328,0.213,0.328,0.427v5.173c0,0.213-0.164,0.427-0.328,0.427H110.869z"/>
<path d="M144.341,39.491c-7.548,0-12.757-4.159-13.004-13.012c0-0.213,0.164-0.427,0.328-0.427h5.866
	c0.164,0,0.328,0.16,0.369,0.427c0.369,4.159,1.846,6.932,6.563,6.932c3.733,0,5.784-1.44,5.784-4.959
	c0-8.426-18.336-1.76-18.336-16.585c0-6.986,4.184-11.358,11.527-11.358c6.727,0,11.363,3.413,12.224,11.412
	c0.041,0.213-0.123,0.427-0.287,0.427h-5.907c-0.164,0-0.328-0.16-0.369-0.427c-0.287-3.413-2.379-5.279-5.907-5.279
	c-2.953,0-5.087,1.333-5.087,4.426c0,7.946,18.418,1.493,18.418,16.265C156.524,35.225,151.848,39.491,144.341,39.491z"/>
<path d="M169.937,39.491c-7.548,0-12.757-4.159-13.004-13.012c0-0.213,0.164-0.427,0.328-0.427h5.866
	c0.164,0,0.328,0.16,0.369,0.427c0.369,4.159,1.846,6.932,6.563,6.932c3.733,0,5.784-1.44,5.784-4.959
	c0-8.426-18.336-1.76-18.336-16.585c0-6.986,4.184-11.358,11.527-11.358c6.727,0,11.363,3.413,12.224,11.412
	c0.041,0.213-0.123,0.427-0.287,0.427h-5.907c-0.164,0-0.328-0.16-0.369-0.427c-0.287-3.413-2.379-5.279-5.907-5.279
	c-2.953,0-5.087,1.333-5.087,4.426c0,7.946,18.418,1.493,18.418,16.265C182.12,35.225,177.444,39.491,169.937,39.491z"/>
<path d="M202.178,25.679h-4.84l0.041,12.532c0,0.213-0.164,0.427-0.328,0.427h-5.661c-0.164,0-0.328-0.213-0.328-0.427l0.123-18.238
	l-0.123-18.238c0-0.213,0.164-0.427,0.328-0.427h10.83c6.932,0,10.912,4.053,10.912,11.999
	C213.131,21.146,209.028,25.679,202.178,25.679z M202.465,7.228h-5.128l-0.041,12.532h5.333c2.42,0,4.471-1.813,4.471-6.292
	C207.1,9.201,205.419,7.228,202.465,7.228z"/>
<path d="M228.02,39.438c-8.778,0-14.48-7.946-14.48-19.358c0-11.892,5.661-19.571,14.48-19.571c8.737,0,14.521,7.519,14.521,19.571
	C242.541,31.492,236.798,39.438,228.02,39.438z M228.061,33.198c5.169,0,8.04-4.959,8.04-13.118c0-8.159-2.83-13.332-8.081-13.332
	s-8.04,5.013-8.04,13.332C219.98,28.186,222.892,33.198,228.061,33.198z"/>
<path d="M244.058,38.638c-0.164,0-0.328-0.213-0.328-0.427l0.123-18.238L243.73,1.736c0-0.213,0.164-0.427,0.328-0.427h5.62
	c0.164,0,0.328,0.213,0.328,0.427l-0.082,17.758l0.082,13.118h11.732c0.164,0,0.328,0.213,0.328,0.427v5.173
	c0,0.213-0.164,0.427-0.328,0.427H244.058z"/>
<path d="M263.594,38.638c-0.164,0-0.328-0.213-0.328-0.427l0.123-18.238l-0.123-18.238c0-0.213,0.164-0.427,0.328-0.427h5.62
	c0.164,0,0.328,0.213,0.328,0.427l-0.082,17.758l0.082,13.118h11.732c0.164,0,0.328,0.213,0.328,0.427v5.173
	c0,0.213-0.164,0.427-0.328,0.427H263.594z"/>
<path d="M290.375,38.211c0,0.213-0.164,0.427-0.328,0.427h-5.661c-0.164,0-0.328-0.213-0.328-0.427l0.082-11.679l-9.64-24.85
	c-0.082-0.16,0-0.373,0.164-0.373h6.44c0.205,0,0.369,0.16,0.451,0.373l5.866,17.225l5.989-17.225
	c0.082-0.213,0.246-0.373,0.451-0.373h5.907c0.164,0,0.246,0.213,0.164,0.373l-9.64,24.85L290.375,38.211z"/>
</svg>
